<svg width="30" height="30" viewBox="0 0 30 30" fill="none" xmlns="http://www.w3.org/2000/svg">
<path d="M17.18 22.17C16.8047 23.4108 16.1143 24.5331 15.1761 25.4275C14.2378 26.3219 13.0838 26.9579 11.8265 27.2733C10.5692 27.5888 9.25164 27.5731 8.00227 27.2276C6.75289 26.8821 5.61439 26.2188 4.6978 25.3022C3.78121 24.3856 3.11783 23.2471 2.77236 21.9977C2.42689 20.7483 2.41114 19.4308 2.72663 18.1735C3.04212 16.9162 3.67808 15.7622 4.57249 14.8239C5.4669 13.8857 6.58922 13.1952 7.82997 12.82M18.75 7.5H20V12.5M7.66747 18.46L8.74997 17.835L11.25 22.165M27.5 10C27.5 14.1421 24.1421 17.5 20 17.5C15.8578 17.5 12.5 14.1421 12.5 10C12.5 5.85786 15.8578 2.5 20 2.5C24.1421 2.5 27.5 5.85786 27.5 10Z" stroke="black" stroke-width="2" stroke-linecap="round" stroke-linejoin="round"/>
</svg>
